<svg id="svg" version="1.1" width="400" height="400" xmlns="http://www.w3.org/2000/svg" xmlns:xlink="http://www.w3.org/1999/xlink" style="display: block;"><g id="svgg"><path id="path0" d="M197.500 38.519 C 184.272 39.854,182.679 40.495,159.800 53.688 C 113.101 80.617,84.194 97.364,83.869 97.677 C 83.697 97.843,88.263 100.376,101.641 107.537 L 119.644 117.174 120.278 116.343 C 124.867 110.325,134.257 115.163,131.836 122.298 C 131.613 122.957,131.445 123.506,131.465 123.519 C 131.586 123.595,138.747 127.376,140.900 128.500 C 142.330 129.247,144.951 130.655,146.725 131.629 C 148.499 132.603,150.031 133.400,150.129 133.400 C 150.227 133.400,150.626 133.617,151.017 133.882 C 151.407 134.147,157.435 137.423,164.413 141.162 L 177.100 147.960 183.027 147.234 L 188.954 146.508 189.065 145.426 C 189.127 144.831,189.391 143.912,189.652 143.384 L 190.127 142.423 174.647 127.922 L 159.168 113.421 158.347 114.016 C 151.893 118.691,144.254 109.210,150.119 103.804 C 155.416 98.921,163.692 105.021,160.524 111.472 L 159.949 112.644 161.024 113.695 C 161.616 114.273,168.556 120.789,176.446 128.175 L 190.791 141.604 191.709 140.904 C 196.044 137.594,202.100 140.772,202.100 146.356 L 202.100 148.212 202.800 148.398 C 205.411 149.095,227.258 154.800,227.316 154.800 C 227.356 154.800,227.581 154.354,227.815 153.810 C 230.378 147.852,240.400 149.628,240.400 156.040 L 240.400 156.665 246.850 156.533 C 250.398 156.460,255.921 156.401,259.124 156.400 L 264.949 156.400 265.083 155.558 C 265.398 153.588,266.832 151.618,268.587 150.744 L 269.541 150.268 266.035 138.058 L 262.529 125.847 260.987 125.758 C 252.443 125.263,252.648 112.700,261.200 112.700 C 268.337 112.700,270.246 121.540,263.921 125.300 C 263.579 125.504,263.737 126.089,270.318 148.924 L 270.613 149.947 271.960 150.044 C 272.777 150.102,273.698 150.324,274.303 150.608 C 274.851 150.865,275.350 151.081,275.411 151.088 C 275.516 151.099,278.388 147.901,287.572 137.545 L 291.433 133.191 290.788 132.456 C 285.265 126.166,294.922 117.564,300.596 123.719 C 305.340 128.866,299.502 137.184,293.187 134.276 L 292.275 133.856 284.274 142.874 L 276.273 151.892 276.931 152.754 C 277.531 153.541,278.200 155.235,278.200 155.969 C 278.200 156.226,278.994 156.248,284.350 156.133 C 287.733 156.060,293.253 156.001,296.617 156.000 L 302.734 156.000 303.062 154.823 C 305.094 147.513,315.889 149.008,315.898 156.600 C 315.907 164.410,304.724 165.631,302.965 158.012 L 302.717 156.937 296.726 157.069 C 293.431 157.141,287.929 157.200,284.500 157.200 L 278.266 157.200 277.938 158.377 C 277.561 159.734,276.643 161.035,275.453 161.898 C 274.997 162.229,274.660 162.610,274.703 162.744 C 274.747 162.878,277.673 172.913,281.205 185.044 C 284.738 197.175,287.689 207.160,287.764 207.233 C 288.671 208.116,311.959 220.194,312.316 219.966 C 312.544 219.820,314.086 218.634,315.742 217.332 L 318.752 214.964 318.126 213.750 C 314.811 207.321,323.146 201.086,328.481 206.004 C 334.231 211.304,327.109 220.571,320.505 216.383 C 320.000 216.062,319.552 215.800,319.510 215.800 C 319.379 215.800,313.302 220.615,313.250 220.761 C 313.193 220.922,313.867 221.306,318.500 223.749 C 323.999 226.650,342.667 236.639,345.600 238.251 L 348.300 239.735 348.360 192.317 C 348.404 158.491,348.357 144.186,348.197 142.410 C 346.595 124.597,336.214 107.698,321.500 98.950 C 320.290 98.230,313.630 94.378,306.700 90.388 C 287.903 79.568,233.183 47.923,231.000 46.612 C 220.932 40.561,208.066 37.453,197.500 38.519 M183.663 148.274 L 178.825 148.900 209.409 165.300 C 226.230 174.320,240.208 181.781,240.471 181.880 C 240.935 182.054,266.200 161.158,266.200 160.600 C 266.200 160.503,266.027 160.125,265.816 159.761 C 265.605 159.398,265.328 158.703,265.200 158.218 L 264.967 157.336 259.134 157.468 C 255.925 157.540,250.410 157.599,246.877 157.600 L 240.454 157.600 240.002 158.850 C 237.617 165.447,227.918 164.127,227.219 157.110 L 227.100 155.921 214.302 152.570 C 202.898 149.585,201.485 149.256,201.321 149.549 C 198.733 154.172,191.222 153.559,189.454 148.579 C 189.234 147.961,188.994 147.609,188.803 147.624 C 188.636 147.637,186.323 147.929,183.663 148.274 M54.540 207.271 C 54.583 259.142,54.552 257.548,55.617 262.886 C 58.661 278.141,69.133 292.834,82.338 300.381 C 86.823 302.944,171.216 351.672,173.270 352.884 C 190.673 363.157,213.254 362.852,231.088 352.104 C 233.608 350.586,237.909 348.094,268.900 330.198 C 285.031 320.883,297.986 313.384,315.200 303.398 C 317.345 302.154,319.261 301.026,319.458 300.893 C 319.768 300.684,318.885 300.156,312.858 296.950 C 309.031 294.915,301.195 290.719,295.444 287.625 C 289.694 284.531,284.921 282.000,284.837 282.000 C 284.683 282.000,283.881 289.164,284.023 289.271 C 284.065 289.303,284.513 289.565,285.017 289.853 C 290.902 293.221,288.570 302.096,281.800 302.096 C 276.594 302.096,273.442 296.482,276.203 292.127 L 276.773 291.229 269.036 283.952 C 264.781 279.950,260.974 276.389,260.575 276.039 L 259.851 275.403 258.593 276.051 C 254.321 278.255,249.428 275.375,249.023 270.417 L 248.900 268.915 237.107 265.158 C 223.220 260.733,225.340 261.226,224.722 262.280 C 224.438 262.764,223.783 263.533,223.267 263.988 L 222.327 264.815 222.720 265.757 C 222.936 266.276,225.939 273.588,229.393 282.007 L 235.674 297.314 237.587 297.307 C 244.877 297.280,247.042 306.826,240.435 309.866 C 233.717 312.957,227.979 303.772,233.535 298.820 L 234.645 297.831 227.955 281.565 C 223.092 269.745,221.187 265.321,220.982 265.375 C 220.827 265.417,220.048 265.496,219.250 265.552 C 218.453 265.607,217.799 265.663,217.799 265.676 C 217.798 265.689,215.999 272.630,213.801 281.100 C 210.235 294.841,209.840 296.522,210.131 296.700 C 216.442 300.567,214.551 309.290,207.400 309.298 C 198.840 309.308,198.645 296.736,207.197 296.241 L 208.750 296.151 209.714 292.426 C 210.244 290.377,212.042 283.435,213.709 277.000 L 216.742 265.300 215.921 264.835 C 215.469 264.579,214.910 264.193,214.677 263.976 L 214.254 263.581 201.116 273.013 L 187.978 282.445 188.139 283.072 C 190.170 290.992,179.144 295.048,175.734 287.635 C 172.728 281.101,181.702 275.209,186.587 280.509 C 187.144 281.113,187.506 281.359,187.686 281.255 C 187.834 281.170,193.706 276.971,200.734 271.923 L 213.513 262.747 213.007 261.726 C 212.610 260.924,212.494 260.361,212.464 259.102 L 212.425 257.500 172.463 243.353 L 132.500 229.205 132.200 229.651 C 131.159 231.197,129.805 232.264,128.335 232.697 L 127.500 232.943 127.373 234.921 C 127.304 236.010,127.236 243.523,127.223 251.617 L 127.200 266.334 128.377 266.662 C 135.687 268.694,134.191 279.496,126.600 279.496 C 119.031 279.496,117.510 268.695,124.795 266.670 L 125.944 266.350 126.072 264.544 C 126.142 263.551,126.200 256.058,126.200 247.892 L 126.200 233.045 125.314 232.913 C 124.826 232.839,123.996 232.561,123.469 232.294 C 122.942 232.028,122.454 231.875,122.386 231.955 C 122.149 232.230,97.938 257.701,96.750 258.925 L 95.561 260.150 96.186 261.012 C 100.745 267.307,92.046 274.875,86.319 269.596 C 80.892 264.593,87.015 255.606,93.636 258.858 L 94.772 259.416 96.465 257.658 C 97.396 256.691,103.464 250.326,109.950 243.514 L 121.742 231.127 121.077 230.256 C 120.711 229.776,120.305 229.029,120.175 228.594 L 119.938 227.804 118.919 227.910 C 117.723 228.036,85.519 230.400,85.011 230.400 C 84.760 230.400,84.576 230.722,84.338 231.577 C 82.306 238.887,71.511 237.392,71.502 229.800 C 71.493 222.024,82.675 220.764,84.425 228.343 L 84.663 229.374 85.581 229.278 C 86.769 229.155,118.923 226.800,119.422 226.800 C 119.721 226.800,119.800 226.653,119.800 226.094 C 119.800 225.705,119.984 224.840,120.210 224.170 C 120.435 223.501,120.585 222.918,120.541 222.875 C 120.498 222.831,113.823 217.718,105.709 211.513 L 90.955 200.230 90.140 200.820 C 84.817 204.676,77.549 198.487,80.454 192.572 C 82.971 187.446,90.668 187.732,92.546 193.021 C 92.737 193.559,92.985 194.004,93.097 194.010 C 94.344 194.069,114.563 190.868,114.274 190.657 C 114.085 190.518,111.674 189.199,108.915 187.725 C 106.157 186.250,96.790 181.240,88.100 176.591 C 60.692 161.928,55.716 159.269,55.100 158.951 L 54.500 158.641 54.540 207.271 M254.586 171.984 C 247.725 177.768,242.125 182.579,242.142 182.676 C 242.178 182.887,265.990 195.676,266.115 195.552 C 266.249 195.417,270.584 163.337,270.489 163.182 C 270.442 163.107,270.093 162.987,269.711 162.915 C 269.330 162.844,268.578 162.489,268.040 162.127 L 267.062 161.469 254.586 171.984 M272.304 163.171 L 271.708 163.302 269.465 179.801 C 268.231 188.876,267.284 196.325,267.361 196.356 C 267.437 196.387,271.685 198.658,276.800 201.404 C 281.915 204.149,286.120 206.329,286.145 206.248 C 286.170 206.167,283.371 196.425,279.924 184.600 C 273.121 161.256,273.693 162.866,272.304 163.171 M105.200 193.407 C 99.425 194.268,94.330 195.028,93.877 195.095 C 93.056 195.216,93.053 195.219,92.932 196.246 C 92.865 196.812,92.572 197.761,92.282 198.355 C 91.992 198.948,91.832 199.505,91.927 199.592 C 92.414 200.037,121.237 222.000,121.334 222.000 C 121.396 222.000,121.770 221.717,122.163 221.371 C 122.973 220.661,124.148 220.096,125.236 219.896 C 126.229 219.713,126.234 219.651,126.160 207.120 L 126.100 196.939 121.313 194.370 C 118.680 192.956,116.340 191.809,116.113 191.821 C 115.886 191.832,110.975 192.546,105.200 193.407 M127.200 208.692 L 127.200 219.785 128.050 220.009 C 128.518 220.132,129.278 220.451,129.740 220.719 L 130.580 221.205 135.940 215.064 C 143.485 206.419,143.578 206.311,143.537 206.275 C 143.437 206.186,127.342 197.600,127.276 197.600 C 127.234 197.600,127.200 202.592,127.200 208.692 M138.600 213.622 C 135.355 217.358,132.401 220.771,132.035 221.206 L 131.370 221.996 131.790 222.586 C 132.022 222.911,132.348 223.505,132.515 223.906 C 132.683 224.307,132.928 224.597,133.060 224.552 C 133.192 224.506,140.657 223.125,149.650 221.484 C 158.642 219.843,166.000 218.454,166.000 218.398 C 166.000 218.313,144.978 206.973,144.619 206.864 C 144.553 206.844,141.845 209.885,138.600 213.622 M149.971 222.563 L 133.042 225.684 132.949 226.892 C 132.898 227.556,132.866 228.113,132.878 228.130 C 132.943 228.217,212.851 256.412,212.888 256.361 C 212.911 256.327,213.128 255.971,213.370 255.569 C 214.332 253.968,216.222 252.726,218.085 252.471 C 218.809 252.372,219.024 252.254,219.090 251.922 C 219.297 250.880,219.564 247.087,219.439 246.966 C 218.812 246.360,167.964 219.404,167.481 219.421 C 167.162 219.433,159.282 220.847,149.971 222.563 M220.529 248.750 C 220.462 249.382,220.350 250.486,220.280 251.202 L 220.155 252.505 221.052 252.745 C 223.611 253.429,225.600 256.251,225.600 259.196 L 225.600 260.319 237.350 264.060 C 251.020 268.412,249.241 268.006,249.878 266.920 C 250.162 266.436,250.800 265.682,251.297 265.244 L 252.200 264.449 243.850 259.988 C 239.258 257.535,232.180 253.744,228.123 251.564 C 224.066 249.384,220.725 247.600,220.699 247.600 C 220.673 247.600,220.596 248.118,220.529 248.750 M262.200 270.463 C 262.200 271.410,261.718 272.902,261.120 273.806 L 260.613 274.573 268.665 282.136 C 273.094 286.296,276.901 289.858,277.127 290.052 C 277.521 290.391,277.581 290.381,278.753 289.776 C 279.662 289.308,280.328 289.123,281.381 289.048 C 282.779 288.948,282.793 288.941,282.891 288.323 C 283.124 286.852,283.647 281.380,283.562 281.295 C 283.510 281.244,279.336 278.989,274.284 276.286 C 269.233 273.582,264.447 271.014,263.650 270.579 L 262.200 269.790 262.200 270.463 " stroke="none" fill="#ffffff" fill-rule="evenodd"></path><path id="path1" d="M81.527 98.609 C 70.406 105.099,61.397 116.737,56.724 130.652 C 54.640 136.858,54.005 142.758,54.296 153.219 L 54.443 158.529 57.772 160.300 C 59.602 161.274,65.330 164.337,70.500 167.107 C 75.670 169.876,84.670 174.688,90.500 177.799 C 96.330 180.911,104.205 185.124,108.000 187.162 C 111.795 189.200,115.665 191.267,116.600 191.757 C 117.535 192.246,120.145 193.639,122.400 194.851 C 124.655 196.064,127.130 197.393,127.900 197.804 C 128.670 198.215,132.540 200.287,136.500 202.410 C 140.460 204.533,144.375 206.627,145.200 207.064 C 146.025 207.501,151.065 210.202,156.400 213.066 C 161.735 215.930,167.405 218.964,169.000 219.809 C 170.595 220.653,182.610 227.086,195.700 234.102 C 208.790 241.119,220.265 247.265,221.200 247.759 C 222.135 248.252,223.845 249.167,225.000 249.791 C 228.831 251.861,245.087 260.573,257.600 267.264 C 272.448 275.203,296.215 287.941,300.400 290.204 C 307.840 294.226,319.255 300.303,319.660 300.458 C 320.138 300.640,322.183 299.599,324.822 297.830 C 333.589 291.952,340.537 282.633,345.374 270.265 C 347.948 263.683,348.831 256.612,348.507 245.171 L 348.356 239.841 345.972 238.517 C 343.084 236.913,321.617 225.440,317.700 223.407 C 316.160 222.608,314.299 221.604,313.565 221.177 C 312.831 220.750,312.188 220.400,312.137 220.400 C 312.086 220.400,306.656 217.507,300.072 213.971 C 293.487 210.435,286.750 206.824,285.100 205.946 C 283.450 205.068,277.780 202.032,272.500 199.199 C 267.220 196.366,244.720 184.308,222.500 172.403 C 200.280 160.497,180.975 150.148,179.600 149.405 C 178.225 148.661,172.600 145.641,167.100 142.695 C 161.600 139.748,153.590 135.430,149.300 133.099 C 145.010 130.768,140.060 128.114,138.300 127.201 C 136.540 126.288,133.660 124.758,131.900 123.802 C 130.140 122.845,126.540 120.911,123.900 119.504 C 113.060 113.725,109.551 111.849,97.800 105.549 C 91.035 101.922,85.012 98.694,84.414 98.377 C 83.061 97.657,83.172 97.649,81.527 98.609 " stroke="none" fill="#0f58a9" fill-rule="evenodd"></path><path id="path2" d="M152.441 102.367 C 147.950 103.969,146.571 109.573,149.804 113.081 C 151.987 115.449,155.793 115.866,158.347 114.016 L 159.168 113.421 174.647 127.922 L 190.127 142.423 189.652 143.384 C 189.391 143.912,189.127 144.832,189.065 145.428 L 188.953 146.512 183.427 147.170 C 176.702 147.970,176.925 147.917,177.925 148.478 L 178.700 148.914 183.889 148.262 C 186.743 147.904,189.089 147.631,189.103 147.656 C 189.117 147.680,189.286 148.125,189.479 148.644 C 191.306 153.577,198.748 154.145,201.321 149.549 C 201.485 149.256,202.898 149.585,214.302 152.570 L 227.100 155.921 227.219 157.110 C 227.918 164.127,237.617 165.447,240.002 158.850 L 240.454 157.600 246.877 157.600 C 250.410 157.599,255.925 157.540,259.134 157.468 L 264.967 157.336 265.200 158.218 C 265.328 158.703,265.605 159.398,265.816 159.761 C 266.027 160.125,266.200 160.503,266.200 160.600 C 266.200 160.796,241.244 181.884,240.855 182.017 C 240.721 182.063,240.966 182.293,241.399 182.530 C 241.832 182.766,242.167 182.864,242.143 182.748 C 242.119 182.632,247.716 177.797,254.581 172.003 L 267.062 161.469 268.040 162.127 C 268.578 162.489,269.330 162.844,269.711 162.915 C 270.093 162.987,270.442 163.107,270.489 163.182 C 270.585 163.337,266.259 195.343,266.110 195.585 C 265.997 195.767,266.999 196.268,267.158 196.108 C 267.217 196.050,268.264 188.646,269.486 179.657 L 271.707 163.311 272.577 163.139 C 273.737 162.910,272.990 160.725,280.019 184.921 L 286.300 206.543 287.052 206.956 C 287.466 207.183,287.765 207.304,287.716 207.225 C 287.667 207.146,284.737 197.160,281.205 185.034 C 277.672 172.909,274.747 162.878,274.703 162.744 C 274.660 162.610,274.997 162.229,275.453 161.898 C 276.643 161.035,277.561 159.734,277.938 158.377 L 278.266 157.200 284.500 157.200 C 287.929 157.200,293.431 157.141,296.726 157.069 L 302.717 156.937 302.965 158.012 C 304.724 165.634,315.896 164.414,315.896 156.600 C 315.896 149.009,305.094 147.513,303.062 154.823 L 302.734 156.000 296.617 156.000 C 293.253 156.001,287.733 156.060,284.350 156.133 C 278.994 156.248,278.200 156.226,278.200 155.969 C 278.200 155.235,277.531 153.541,276.931 152.754 L 276.273 151.892 284.274 142.874 L 292.275 133.856 293.187 134.276 C 299.502 137.184,305.340 128.866,300.596 123.719 C 294.922 117.564,285.265 126.166,290.788 132.456 L 291.433 133.191 287.572 137.545 C 278.388 147.901,275.516 151.099,275.411 151.088 C 275.350 151.081,274.851 150.865,274.303 150.608 C 273.698 150.324,272.777 150.102,271.960 150.044 L 270.613 149.947 270.318 148.924 C 263.737 126.089,263.579 125.504,263.921 125.300 C 270.246 121.540,268.337 112.700,261.200 112.700 C 252.648 112.700,252.443 125.263,260.987 125.758 L 262.529 125.847 266.035 138.058 L 269.541 150.268 268.587 150.744 C 266.832 151.618,265.398 153.588,265.083 155.558 L 264.949 156.400 259.124 156.400 C 255.921 156.401,250.398 156.460,246.850 156.533 L 240.400 156.665 240.400 156.040 C 240.400 149.628,230.378 147.852,227.815 153.810 C 227.581 154.354,227.356 154.800,227.316 154.800 C 227.258 154.800,205.411 149.095,202.800 148.398 L 202.100 148.212 202.100 146.356 C 202.100 140.772,196.044 137.594,191.709 140.904 L 190.791 141.604 176.446 128.175 C 168.556 120.789,161.616 114.273,161.024 113.695 L 159.949 112.644 160.524 111.472 C 163.060 106.308,157.848 100.437,152.441 102.367 M123.665 113.876 C 122.140 114.374,119.800 116.314,119.800 117.078 C 119.800 117.367,131.153 123.453,131.404 123.298 C 132.321 122.731,132.392 118.906,131.519 117.121 C 130.225 114.475,126.517 112.943,123.665 113.876 M84.241 189.167 C 79.750 190.769,78.371 196.373,81.604 199.881 C 83.784 202.247,87.593 202.666,90.140 200.820 L 90.955 200.230 105.709 211.513 C 113.823 217.718,120.498 222.831,120.541 222.875 C 120.585 222.918,120.435 223.501,120.210 224.170 C 119.984 224.840,119.800 225.705,119.800 226.094 C 119.800 226.653,119.721 226.800,119.422 226.800 C 118.923 226.800,86.769 229.155,85.581 229.278 L 84.663 229.374 84.425 228.343 C 82.675 220.761,71.504 222.020,71.504 229.800 C 71.504 237.391,82.306 238.887,84.338 231.577 C 84.576 230.722,84.760 230.400,85.011 230.400 C 85.519 230.400,117.723 228.036,118.919 227.910 L 119.938 227.804 120.175 228.594 C 120.305 229.029,120.711 229.776,121.077 230.256 L 121.742 231.127 109.950 243.514 C 103.464 250.326,97.396 256.691,96.465 257.658 L 94.772 259.416 93.636 258.858 C 87.218 255.706,81.141 264.005,86.004 269.281 C 91.436 275.174,100.886 267.500,96.186 261.012 L 95.561 260.150 96.750 258.925 C 97.938 257.701,122.149 232.230,122.386 231.955 C 122.454 231.875,122.942 232.028,123.469 232.294 C 123.996 232.561,124.826 232.839,125.314 232.913 L 126.200 233.045 126.200 247.892 C 126.200 256.058,126.142 263.551,126.072 264.544 L 125.944 266.350 124.795 266.670 C 117.510 268.695,119.029 279.489,126.600 279.498 C 134.185 279.507,135.682 268.693,128.377 266.662 L 127.200 266.334 127.223 251.617 C 127.236 243.523,127.304 236.010,127.373 234.921 L 127.500 232.943 128.335 232.697 C 129.805 232.264,131.159 231.197,132.200 229.651 L 132.500 229.205 172.463 243.353 L 212.425 257.500 212.464 259.102 C 212.494 260.361,212.610 260.924,213.007 261.726 L 213.513 262.747 200.734 271.923 C 193.706 276.971,187.834 281.170,187.686 281.255 C 187.506 281.359,187.144 281.113,186.587 280.509 C 181.597 275.095,172.610 281.223,175.854 287.828 C 179.392 295.032,190.139 290.872,188.139 283.072 L 187.978 282.445 201.116 273.013 L 214.254 263.581 214.677 263.976 C 214.910 264.193,215.469 264.579,215.921 264.835 L 216.742 265.300 213.709 277.000 C 212.042 283.435,210.244 290.377,209.714 292.426 L 208.750 296.151 207.197 296.241 C 198.641 296.737,198.836 309.288,207.400 309.298 C 214.543 309.306,216.438 300.565,210.131 296.700 C 209.840 296.522,210.235 294.841,213.801 281.100 C 215.999 272.630,217.798 265.689,217.799 265.676 C 217.799 265.663,218.453 265.607,219.250 265.552 C 220.048 265.496,220.827 265.417,220.982 265.375 C 221.187 265.321,223.092 269.745,227.955 281.565 L 234.645 297.831 233.535 298.820 C 227.864 303.875,233.840 313.080,240.628 309.746 C 247.050 306.592,244.773 297.280,237.587 297.307 L 235.674 297.314 229.393 282.007 C 225.939 273.588,222.936 266.276,222.720 265.757 L 222.327 264.815 223.267 263.988 C 223.783 263.533,224.438 262.764,224.722 262.280 C 225.340 261.226,223.220 260.733,237.107 265.158 L 248.900 268.915 249.023 270.417 C 249.428 275.375,254.321 278.255,258.593 276.051 L 259.851 275.403 260.575 276.039 C 260.974 276.389,264.781 279.950,269.036 283.952 L 276.773 291.229 276.203 292.127 C 273.443 296.479,276.598 302.100,281.800 302.100 C 288.617 302.100,290.915 292.969,284.900 289.778 C 284.405 289.516,283.998 289.166,283.996 289.000 C 283.985 288.066,284.705 282.082,284.840 281.988 C 284.929 281.926,284.700 281.731,284.331 281.555 L 283.661 281.235 283.318 284.568 C 282.820 289.411,283.029 288.930,281.375 289.048 C 280.328 289.123,279.660 289.309,278.753 289.776 C 277.581 290.381,277.521 290.391,277.127 290.052 C 276.901 289.858,273.094 286.296,268.665 282.136 L 260.613 274.573 261.120 273.806 C 261.731 272.883,262.202 271.400,262.196 270.418 L 262.192 269.700 259.046 268.051 C 257.316 267.144,255.027 265.919,253.959 265.329 C 252.892 264.738,252.037 264.312,252.059 264.382 C 252.082 264.452,251.713 264.859,251.239 265.288 C 250.765 265.716,250.149 266.457,249.870 266.933 C 249.243 268.004,251.015 268.411,237.350 264.060 L 225.600 260.319 225.600 259.196 C 225.600 256.254,223.611 253.429,221.058 252.746 L 220.167 252.508 220.306 250.904 C 220.383 250.022,220.508 248.895,220.584 248.400 C 220.719 247.528,220.703 247.490,220.067 247.178 C 219.706 247.001,219.448 246.916,219.493 246.988 C 219.575 247.121,219.248 251.128,219.090 251.922 C 219.024 252.254,218.809 252.372,218.085 252.471 C 216.222 252.726,214.332 253.968,213.370 255.569 C 213.128 255.971,212.911 256.327,212.888 256.361 C 212.851 256.412,132.943 228.217,132.878 228.130 C 132.866 228.113,132.898 227.556,132.949 226.891 L 133.042 225.683 150.497 222.491 L 167.952 219.300 167.026 218.791 C 166.517 218.511,166.055 218.337,166.000 218.403 C 165.945 218.469,158.610 219.852,149.700 221.476 C 140.790 223.099,133.346 224.471,133.157 224.525 C 132.910 224.595,132.731 224.421,132.513 223.900 C 132.347 223.502,132.018 222.906,131.783 222.576 C 131.357 221.977,131.356 221.972,131.747 221.537 C 134.300 218.694,144.400 206.975,144.400 206.855 C 144.400 205.843,143.576 206.302,141.873 208.262 C 140.900 209.383,137.960 212.753,135.340 215.752 L 130.577 221.203 129.738 220.718 C 129.277 220.451,128.516 220.131,128.047 220.008 L 127.193 219.783 127.247 208.630 L 127.300 197.478 126.700 197.169 L 126.100 196.860 126.161 207.080 C 126.235 219.643,126.230 219.713,125.236 219.896 C 124.148 220.096,122.973 220.661,122.163 221.371 C 121.770 221.717,121.396 222.000,121.334 222.000 C 121.237 222.000,92.414 200.037,91.927 199.592 C 91.832 199.505,91.992 198.948,92.282 198.355 C 92.572 197.761,92.865 196.809,92.933 196.238 C 93.000 195.667,93.084 195.200,93.118 195.200 C 93.345 195.200,116.279 191.788,116.318 191.748 C 116.346 191.721,115.917 191.447,115.366 191.139 C 114.815 190.832,114.411 190.655,114.468 190.747 C 114.550 190.882,93.829 194.045,93.097 194.010 C 92.985 194.004,92.737 193.559,92.546 193.021 C 91.428 189.873,87.443 188.024,84.241 189.167 M321.841 204.567 C 318.071 205.912,316.332 210.271,318.155 213.806 L 318.752 214.964 315.742 217.332 C 314.086 218.634,312.530 219.828,312.285 219.985 L 311.838 220.269 312.469 220.587 C 312.940 220.824,313.151 220.847,313.300 220.675 C 313.540 220.399,319.397 215.800,319.508 215.800 C 319.551 215.800,320.000 216.062,320.505 216.383 C 323.124 218.044,326.686 217.570,328.796 215.281 C 333.395 210.292,328.204 202.296,321.841 204.567 " stroke="none" fill="#7aa6e1" fill-rule="evenodd"></path></g></svg>